<svg width="250" height="329" viewBox="0 0 250 329" fill="none" xmlns="http://www.w3.org/2000/svg">
<path d="M206.36 75.5364C197.031 66.7738 186.217 59.9315 174.608 54.9552C173.098 57.2811 171.375 59.4717 169.414 61.473C166.816 64.1234 163.9 66.3952 160.72 68.2072C164.086 69.3431 167.319 70.6413 170.421 72.1287C173.574 73.6433 174.794 77.5918 173.044 80.6749C171.507 83.4065 168.141 84.4882 165.358 83.136C144.208 72.9401 120.593 74.8603 110.23 76.4559C107.182 76.9157 104.266 74.9414 103.551 71.8853V71.8583C102.729 68.3965 105.009 64.9618 108.454 64.4209C110.336 64.1234 112.615 63.826 115.16 63.5825C114.391 62.9064 113.649 62.2033 112.934 61.473C109.276 57.7409 106.387 53.3866 104.373 48.5185C104.161 48.0047 103.949 47.4638 103.763 46.9499C100.609 47.4908 97.4817 48.167 94.4337 48.9513C76.6761 38.4037 55.3669 38.3767 42.6979 39.6478C37.1851 40.1887 33.9251 46.1927 36.337 51.2771L47.0711 73.7244C35.1443 84.326 26.1329 97.3075 21.0707 111.777L7.9777 111.722C3.57804 111.695 0 115.346 0 119.836V149.802C0 152.83 1.64325 155.589 4.26714 156.996L21.2562 166.029C28.3593 186.015 43.069 203.161 62.4699 214.98V241.511C62.4699 246.731 66.6311 250.977 71.7463 250.977H95.5469C99.2307 250.977 102.57 248.732 104.055 245.297L110.018 231.315C115.16 231.964 120.381 232.289 125.735 232.289C134.164 232.289 142.353 231.478 150.225 229.936V241.511C150.225 246.731 154.386 250.977 159.501 250.977H183.196C186.614 250.977 189.769 249.056 191.385 245.973C204.001 221.795 217.704 197.536 227.828 172.222C232.943 159.403 234.799 145.799 233.686 132.52C231.883 111.1 222.342 90.5193 206.36 75.5364ZM63.9807 125.867C57.3812 125.867 52.0539 120.431 52.0539 113.697C52.0539 106.963 57.3812 101.527 63.9807 101.527C70.5802 101.527 75.9075 106.963 75.9075 113.697C75.9072 120.431 70.5802 125.867 63.9807 125.867Z" fill="#FEBBCC"/>
<path d="M129.419 63.0146C133.05 64.475 137.026 65.2864 141.187 65.2864C143.227 65.2864 145.215 65.0971 147.123 64.7184C155.234 63.1769 162.258 58.4981 166.948 51.9803C170.845 46.5713 173.15 39.8912 173.15 32.6432C173.177 14.6042 158.838 0 141.187 0C123.508 0 109.196 14.6042 109.196 32.6432C109.196 37.322 110.15 41.7573 111.9 45.787C115.266 53.63 121.6 59.8504 129.419 63.0146Z" fill="#FFDDA7"/>
<path d="M50.123 253.553C54.919 256.475 57.86 259.848 58.946 263.673C60.0554 267.464 59.2105 271.382 56.4115 275.427C53.4492 279.708 49.8272 282.245 45.5456 283.039C41.2873 283.799 36.7602 282.718 31.9643 279.796L21.5673 273.461L30.4046 271.585L20.503 285.895L8.32063 278.473L32.8472 243.027L50.123 253.553ZM37.492 270.512C38.8223 271.323 40.0941 271.571 41.3074 271.256C42.579 270.928 43.6813 270.09 44.6143 268.742C45.524 267.427 45.8562 266.192 45.6109 265.036C45.4239 263.868 44.6653 262.879 43.335 262.068L33.5681 256.117L42.4054 254.242L29.4949 272.9L27.7251 264.562L37.492 270.512Z" fill="#FEBBCC"/>
<path d="M58.8347 269.015L71.645 274.241L57.5069 304.76L44.6966 299.534L58.8347 269.015ZM72.2469 256.575C74.1447 257.35 75.4252 258.58 76.0884 260.265C76.7517 261.951 76.6525 263.724 75.7909 265.584C74.9294 267.443 73.6156 268.721 71.8496 269.415C70.0836 270.11 68.2517 270.07 66.3539 269.296C64.4561 268.522 63.1755 267.292 62.5123 265.607C61.8491 263.921 61.9483 262.148 62.8098 260.288C63.6714 258.429 64.9852 257.151 66.7512 256.456C68.5172 255.762 70.3491 255.801 72.2469 256.575Z" fill="#FEBBCC"/>
<path d="M93.445 311.838C92.6284 314.844 91.1419 317.269 88.9853 319.113C86.8288 320.956 84.2139 322.142 81.1406 322.671C78.0965 323.249 74.7604 323.104 71.1323 322.237C67.9827 321.484 65.1706 320.348 62.6959 318.829C60.2104 317.35 58.261 315.851 56.8475 314.334L63.527 306.389C64.7259 307.602 66.1526 308.681 67.807 309.624C69.5013 310.577 71.1458 311.244 72.7405 311.626C74.0562 311.94 75.2209 312.029 76.2345 311.892C77.2375 311.795 78.0388 311.502 78.6385 311.014C79.2888 310.495 79.7268 309.821 79.9524 308.99L88.1395 278.845L101.535 282.049L93.445 311.838ZM79.8362 276.354C82.4277 276.974 84.4486 278.131 85.8988 279.826C87.389 281.531 88.3009 283.645 88.6346 286.168C88.9682 288.691 88.7107 291.515 87.8619 294.641C87.0024 297.805 85.7772 300.44 84.1865 302.546C82.6356 304.66 80.7858 306.156 78.6372 307.032C76.5391 307.879 74.2143 307.997 71.6627 307.387C69.1112 306.776 66.9906 305.595 65.3011 303.843C63.6224 302.051 62.5019 299.845 61.9398 297.225C61.4283 294.575 61.6023 291.668 62.4618 288.503C63.3106 285.378 64.5993 282.821 66.3281 280.833C68.1074 278.815 70.1657 277.412 72.503 276.623C74.8402 275.833 77.2846 275.744 79.8362 276.354ZM81.0642 287.075C80.1473 286.856 79.2854 286.902 78.4787 287.215C77.672 287.527 76.9458 288.091 76.3 288.906C75.7048 289.69 75.246 290.676 74.9237 291.863C74.6121 293.01 74.5122 294.081 74.6239 295.077C74.7862 296.043 75.1418 296.844 75.6906 297.481C76.2394 298.117 76.9723 298.545 77.8893 298.765C78.8063 298.984 79.6681 298.937 80.4748 298.625C81.2815 298.312 81.9825 297.764 82.5777 296.979C83.2235 296.164 83.7022 295.184 84.0137 294.036C84.3361 292.85 84.4161 291.773 84.2538 290.808C84.1421 289.812 83.8118 288.996 83.263 288.359C82.7141 287.722 81.9812 287.294 81.0642 287.075Z" fill="#FEBBCC"/>
<path d="M132.569 313.809C132.475 316.923 131.593 319.606 129.925 321.858C128.257 324.109 125.99 325.812 123.125 326.965C120.3 328.161 117.023 328.708 113.294 328.608C110.057 328.521 107.058 327.99 104.299 327.013C101.539 326.078 99.2955 325.013 97.5684 323.818L102.216 314.655C103.663 315.596 105.301 316.358 107.129 316.94C108.998 317.523 110.752 317.837 112.391 317.881C113.743 317.917 114.896 317.764 115.85 317.42C116.802 317.118 117.513 316.665 117.983 316.063C118.494 315.42 118.763 314.669 118.79 313.808L119.742 282.586L133.51 282.956L132.569 313.809ZM111.09 281.862C113.753 281.933 115.987 282.65 117.791 284.01C119.636 285.372 121.014 287.254 121.925 289.657C122.836 292.06 123.242 294.88 123.144 298.117C123.044 301.395 122.465 304.229 121.408 306.62C120.392 309.013 118.941 310.86 117.056 312.163C115.213 313.425 112.98 314.021 110.357 313.951C107.735 313.881 105.399 313.162 103.349 311.795C101.3 310.386 99.6978 308.457 98.5422 306.006C97.4288 303.516 96.9221 300.632 97.0221 297.354C97.1208 294.117 97.7795 291.346 98.9981 289.042C100.259 286.697 101.934 284.897 104.023 283.641C106.112 282.384 108.467 281.792 111.09 281.862ZM114.776 292.11C113.833 292.085 113.006 292.309 112.295 292.782C111.583 293.255 111.008 293.957 110.57 294.888C110.173 295.78 109.956 296.84 109.919 298.069C109.883 299.258 110.035 300.328 110.375 301.28C110.757 302.193 111.289 302.904 111.971 303.414C112.652 303.925 113.464 304.193 114.407 304.218C115.349 304.243 116.176 304.019 116.888 303.547C117.6 303.074 118.154 302.391 118.55 301.5C118.988 300.568 119.226 299.509 119.262 298.32C119.299 297.091 119.127 296.02 118.745 295.108C118.405 294.156 117.894 293.424 117.212 292.914C116.531 292.403 115.718 292.136 114.776 292.11Z" fill="#FEBBCC"/>
<path d="M161.159 314.617C160.421 318.268 159.009 321.096 156.923 323.099C154.844 325.143 152.025 326.456 148.465 327.04C146.28 327.398 144.198 327.408 142.217 327.068C140.284 326.762 138.304 326.09 136.276 325.052L140.313 315.17C141.969 316.228 143.566 316.63 145.103 316.378C145.912 316.246 146.553 315.995 147.027 315.627C147.5 315.258 147.846 314.766 148.065 314.148L148.404 313.283L128.662 283.503L142.679 281.205L152.745 298.99L154.633 279.244L168.225 277.015L161.159 314.617Z" fill="#FEBBCC"/>
<path d="M173.255 263.472C178.509 261.489 183.107 261.199 187.05 262.6C190.976 263.964 193.907 266.907 195.845 271.428C197.895 276.214 198.055 280.487 196.325 284.247C194.579 287.97 191.078 290.823 185.824 292.805L174.433 297.103L177.797 289.202L184.651 305.197L171.304 310.233L154.327 270.613L173.255 263.472ZM180.871 283.118C182.329 282.568 183.263 281.734 183.675 280.616C184.109 279.445 184.003 278.107 183.358 276.599C182.728 275.13 181.841 274.151 180.696 273.664C179.574 273.125 178.284 273.13 176.827 273.68L166.126 277.717L169.491 269.816L178.427 290.672L170.171 287.156L180.871 283.118Z" fill="#FEBBCC"/>
<path d="M213.126 275.693C212.332 276.203 211.844 276.784 211.662 277.436C211.514 278.066 211.705 278.745 212.237 279.474C212.768 280.203 213.415 280.638 214.178 280.781C214.94 280.923 215.735 280.729 216.563 280.197C217.08 279.865 217.52 279.461 217.882 278.985C218.244 278.509 218.523 277.989 218.72 277.425C218.892 276.828 218.977 276.215 218.973 275.585L222.71 277.999C223.407 280.275 223.349 282.452 222.536 284.531C221.733 286.555 220.124 288.342 217.71 289.893C215.709 291.178 213.748 291.927 211.827 292.139C209.881 292.319 208.07 292.024 206.393 291.253C204.727 290.426 203.265 289.152 202.009 287.43C200.052 284.747 199.498 282.113 200.346 279.525C201.169 276.905 203.362 274.426 206.925 272.089L214.375 267.303L218.144 272.47L213.126 275.693ZM213.465 268.034C212.764 267.074 211.841 266.572 210.696 266.53C209.561 266.432 208.269 266.848 206.82 267.779C205.751 268.466 204.566 269.446 203.266 270.718C201.966 271.991 200.711 273.43 199.501 275.034L191.478 269.244C192.688 267.64 193.942 266.13 195.239 264.713C196.57 263.274 197.939 261.957 199.346 260.762C200.753 259.566 202.146 258.525 203.526 257.639C207.63 255.002 211.461 253.831 215.018 254.124C218.609 254.394 221.576 256.136 223.92 259.348L236.748 276.934L225.315 284.278L213.465 268.034Z" fill="#FEBBCC"/>
<path d="M207.395 240.855L217.794 231.73L250 264.048L239.601 273.173L207.395 240.855Z" fill="#FEBBCC"/>
</svg>
